<?xml version="1.0" encoding="UTF-8" standalone="no" ?>
<!DOCTYPE svg PUBLIC "-//W3C//DTD SVG 1.1//EN" "http://www.w3.org/Graphics/SVG/1.1/DTD/svg11.dtd">
<svg xmlns="http://www.w3.org/2000/svg" xmlns:xlink="http://www.w3.org/1999/xlink" version="1.1" width="1080" height="1080" viewBox="0 0 1080 1080" xml:space="preserve">
<desc>Created with Fabric.js 5.2.4</desc>
<defs>
</defs>
<g transform="matrix(1 0 0 1 540 540)" id="d16d2852-da8a-4b33-9bc8-d9a668d0b291"  >
<rect style="stroke: none; stroke-width: 1; stroke-dasharray: none; stroke-linecap: butt; stroke-dashoffset: 0; stroke-linejoin: miter; stroke-miterlimit: 4; fill: rgb(255,255,255); fill-rule: nonzero; opacity: 1; visibility: hidden;" vector-effect="non-scaling-stroke"  x="-540" y="-540" rx="0" ry="0" width="1080" height="1080" />
</g>
<g transform="matrix(1 0 0 1 540 540)" id="a3339c82-e504-4eef-a10a-2d710ec986c1"  >
</g>
<g transform="matrix(3.35 0 0 3.35 2140.03 540)"  >
<g style="" vector-effect="non-scaling-stroke"   >
		<g transform="matrix(1 0 0 1 -210.56 26.09)"  >
<path style="stroke: none; stroke-width: 1; stroke-dasharray: none; stroke-linecap: butt; stroke-dashoffset: 0; stroke-linejoin: miter; stroke-miterlimit: 4; fill: rgb(255,255,255); fill-rule: nonzero; opacity: 1;" vector-effect="non-scaling-stroke"  transform=" translate(-413.94, -186)" d="M 456.6 89.25 L 398.55 89.25 C 386.11 89.25 375.68 93.25 368.40000000000003 100.78999999999999 C 361.51000000000005 107.91999999999999 357.88000000000005 117.64999999999999 357.88000000000005 128.94 L 357.88000000000005 181.65 C 357.88000000000005 192.84 361.37000000000006 202.96 367.70000000000005 210.14000000000001 C 374.70000000000005 218.14000000000001 384.89000000000004 222.33 397.07000000000005 222.33 L 426.77000000000004 222.33 C 431.2103031557634 222.2705720120385 435.5486469700921 220.99051841450932 439.31000000000006 218.63000000000002 L 439.31000000000006 243 C 439.3156019754318 248.53653723218795 434.8464416098017 253.0369817203774 429.31000000000006 253.07 L 372.5 253.07 C 370.72835384787186 253.07 369.02926970970674 253.77378369364098 367.77652670167384 255.02652670167384 C 366.523783693641 256.27926970970674 365.82 257.97835384787186 365.82 259.75 L 365.82 282.75 L 429.28999999999996 282.75 C 440.0971593165624 282.76065004507956 450.46416334571126 278.46949862575224 458.10222934572727 270.8239277709094 C 465.7402953457432 263.1783569160666 470.02126350099036 252.80714364578117 470 242 L 470 102.61 C 469.9973541758423 99.06058468636236 468.58344438779994 95.65788962239023 466.0698792671235 93.15182768117852 C 463.5563141464471 90.6457657399668 460.14940736229704 89.2420347289769 456.6 89.25 Z M 439.25 118.87 L 439.25 184.42000000000002 C 438.7147838484735 188.61381986360732 435.49106514189003 191.95949514168825 431.32 192.65 L 397.56 192.65 C 392.88 192.65 388.56 191.44 388.56 182.65 L 388.56 128.95 C 388.56 121.69999999999999 391.35 118.88 398.56 118.88 Z" stroke-linecap="round" />
</g>
		<g transform="matrix(1 0 0 1 -64.91 -4.2)"  >
<path style="stroke: none; stroke-width: 1; stroke-dasharray: none; stroke-linecap: butt; stroke-dashoffset: 0; stroke-linejoin: miter; stroke-miterlimit: 4; fill: rgb(255,255,255); fill-rule: nonzero; opacity: 1;" vector-effect="non-scaling-stroke"  transform=" translate(-559.58, -155.71)" d="M 604.83 99.42 C 597.63 92.89 587.46 89.3 576.19 89.3 L 543 89.3 C 531.75 89.3 521.59 92.89 514.38 99.41 C 506.49 106.55 502.32 116.78 502.32 128.99 L 502.32 181.43 C 502.2933599779577 192.22715159614083 506.57072095132355 202.58975434875072 514.2054833012864 210.2245166987136 C 521.8402456512493 217.85927904867643 532.2028484038592 222.13664002204231 543 222.11 L 611.73 222.11 L 611.73 199.11 C 611.7300041233322 195.4191167459776 608.7408791306926 192.42551701532514 605.0500000000001 192.42000000000002 L 543.0500000000001 192.42000000000002 C 540.3808608627677 192.4549612755116 537.8098294374377 191.41489905838296 535.9157293693679 189.53396552504657 C 534.0216293012982 187.6530319917102 532.9636581567075 185.089318071877 532.98 182.42000000000002 L 532.98 168.91 C 534.6287137329484 169.41820984541215 536.3447421761769 169.67443413163093 538.07 169.67 L 605.85 169.67 C 616.85 169.67 616.85 160.45999999999998 616.85 157.42999999999998 L 616.85 129 C 616.87 116.77 612.7 106.54 604.83 99.42 Z M 586.7 128.66 L 586.7 140.21 L 533 140.21 L 533 128.66 C 533 124.92 534.31 118.66 543.07 118.66 L 577 118.66 C 580.53 118.66 583.06 119.39999999999999 584.52 120.86999999999999 C 585.98 122.33999999999999 586.72 125 586.7 128.66 Z" stroke-linecap="round" />
</g>
		<g transform="matrix(1 0 0 1 76.44 -4.18)"  >
<path style="stroke: none; stroke-width: 1; stroke-dasharray: none; stroke-linecap: butt; stroke-dashoffset: 0; stroke-linejoin: miter; stroke-miterlimit: 4; fill: rgb(255,255,255); fill-rule: nonzero; opacity: 1;" vector-effect="non-scaling-stroke"  transform=" translate(-700.93, -155.73)" d="M 664.24 89.35 C 652.9071169334721 89.35000000000001 643.72 98.53711693347212 643.72 109.86999999999999 L 643.72 222.11 L 667.72 222.11 C 671.4092621288697 222.10999999999999 674.4 219.11926212886968 674.4 215.43 L 674.4 118.7 L 717.4 118.7 C 722.938794813316 118.68890900759092 727.4424548560535 123.16126257535396 727.47 128.7 L 727.47 215.40999999999997 C 727.47 219.09926212886964 730.4607378711303 222.08999999999995 734.15 222.08999999999997 L 758.15 222.08999999999997 L 758.15 129.92 C 758.1366238719646 110.3861528529803 744.3152410207573 93.58689024201287 725.15 89.80999999999999 C 723.4783088268921 89.49697362914992 721.7807313791438 89.34295279562642 720.0799999999999 89.35 Z" stroke-linecap="round" />
</g>
		<g transform="matrix(1 0 0 1 223.07 -4.2)"  >
<path style="stroke: none; stroke-width: 1; stroke-dasharray: none; stroke-linecap: butt; stroke-dashoffset: 0; stroke-linejoin: miter; stroke-miterlimit: 4; fill: rgb(255,255,255); fill-rule: nonzero; opacity: 1;" vector-effect="non-scaling-stroke"  transform=" translate(-847.56, -155.71)" d="M 892.75 99.42 C 885.54 92.89 875.37 89.3 864.11 89.3 L 831 89.3 C 819.76 89.3 809.6 92.89 802.39 99.41 C 794.5 106.55 790.33 116.78 790.33 128.99 L 790.33 181.43 C 790.3033704999596 192.2254145141551 794.5793606813336 202.58649343221362 802.2119562995805 210.22096576440657 C 809.8445519178275 217.85543809659956 820.2045792652016 222.13397543301537 831 222.11 L 899.73 222.11 L 899.73 199.11 C 899.7300041233322 195.4191167459776 896.7408791306926 192.42551701532514 893.0500000000001 192.42000000000002 L 831 192.42000000000002 C 828.330045842804 192.45771485135606 825.757413161257 191.41854198295712 823.862708240673 189.53700780164232 C 821.968003320089 187.6554736203275 820.9109103330273 185.09015227958187 820.93 182.42000000000002 L 820.93 168.91 C 822.5754773914717 169.417363775485 824.2880821656023 169.6735802377565 826.01 169.67 L 893.8 169.67 C 904.8 169.67 904.8 160.45999999999998 904.8 157.42999999999998 L 904.8 129 C 904.78 116.77 900.62 106.54 892.75 99.42 Z M 820.88 128.66 C 820.88 124.92 822.1899999999999 118.66 830.95 118.66 L 864.87 118.66 C 868.41 118.66 870.94 119.39999999999999 872.4 120.86999999999999 C 873.8599999999999 122.33999999999999 874.63 124.99 874.61 128.67 L 874.61 140.22 L 820.88 140.22 Z" stroke-linecap="round" />
</g>
		<g transform="matrix(1 0 0 1 361.19 -4.26)"  >
<path style="stroke: none; stroke-width: 1; stroke-dasharray: none; stroke-linecap: butt; stroke-dashoffset: 0; stroke-linejoin: miter; stroke-miterlimit: 4; fill: rgb(255,255,255); fill-rule: nonzero; opacity: 1;" vector-effect="non-scaling-stroke"  transform=" translate(-985.69, -155.65)" d="M 1032.43 125.27 L 1032.49 125.19 C 1036.038787012325 120.99592605544066 1037.9935811615503 115.68398543254547 1038.01 110.19 L 1038.01 96.28 C 1037.9839850101816 94.37919760171395 1037.1968116117998 92.56821565554772 1035.824717459964 91.25250893460915 C 1034.4526233081278 89.93680221367059 1032.610221032468 89.22627323952291 1030.71 89.28 L 945.33 89.28 C 943.429778967532 89.22627323952291 941.5873766918721 89.9368022136706 940.2152825400362 91.25250893460915 C 938.8431883882004 92.56821565554772 938.0560149898186 94.37919760171397 938.0300000000001 96.28 L 938.0300000000001 118.15 L 1000.2600000000001 118.15 L 937.19 190 L 937.1300000000001 190.07 C 933.5885799993872 194.2676570496979 931.6379005080973 199.57803679005136 931.6200000000001 205.07000000000002 L 931.6200000000001 215.34 C 931.6200000000001 219.02926212886968 934.6107378711304 222.01999999999998 938.3000000000001 222.02 L 1033.0800000000002 222.02 C 1034.8516461521283 222.02000000000004 1036.5507302902934 221.31621630635905 1037.8034732983263 220.06347329832616 C 1039.0562163063591 218.8107302902933 1039.7600000000002 217.11164615212817 1039.7600000000002 215.34 L 1039.7600000000002 192.84 L 972.88 192.84 Z" stroke-linecap="round" />
</g>
		<g transform="matrix(1 0 0 1 462.54 -4.23)"  >
<path style="stroke: none; stroke-width: 1; stroke-dasharray: none; stroke-linecap: butt; stroke-dashoffset: 0; stroke-linejoin: miter; stroke-miterlimit: 4; fill: rgb(255,255,255); fill-rule: nonzero; opacity: 1;" vector-effect="non-scaling-stroke"  transform=" translate(-1087.04, -155.68)" d="M 1095.06 89.25 L 1071.7 89.25 L 1071.7 215.43 C 1071.7 217.20164615212818 1072.4037836936411 218.9007302902933 1073.656526701674 220.15347329832616 C 1074.909269709707 221.40621630635906 1076.608353847872 222.11000000000004 1078.38 222.11 L 1102.38 222.11 L 1102.38 96.28 C 1102.3620916392083 94.37039089915972 1101.5756725662081 92.54850714010259 1100.1983074357859 91.2257097539185 C 1098.8209423053638 89.9029123677344 1096.9687734724482 89.1907424411922 1095.06 89.25 Z" stroke-linecap="round" />
</g>
		<g transform="matrix(1 0 0 1 462.52 -106.74)"  >
<path style="stroke: none; stroke-width: 1; stroke-dasharray: none; stroke-linecap: butt; stroke-dashoffset: 0; stroke-linejoin: miter; stroke-miterlimit: 4; fill: rgb(0,250,164); fill-rule: nonzero; opacity: 1;" vector-effect="non-scaling-stroke"  transform=" translate(-1087.02, -53.16)" d="M 1095.68 37.1 L 1071.68 37.1 L 1071.68 62.55 C 1071.68 64.32164615212817 1072.3837836936411 66.02073029029329 1073.636526701674 67.27347329832615 C 1074.889269709707 68.52621630635902 1076.588353847872 69.23 1078.3600000000001 69.22999999999999 L 1102.3600000000001 69.22999999999999 L 1102.3600000000001 43.78 C 1102.3600000000001 42.00835384787184 1101.656216306359 40.30926970970671 1100.4034732983262 39.05652670167384 C 1099.1507302902933 37.803783693640966 1097.4516461521282 37.09999999999999 1095.68 37.1 Z" stroke-linecap="round" />
</g>
		<g transform="matrix(1 0 0 1 567.33 -4.23)"  >
<path style="stroke: none; stroke-width: 1; stroke-dasharray: none; stroke-linecap: butt; stroke-dashoffset: 0; stroke-linejoin: miter; stroke-miterlimit: 4; fill: rgb(255,255,255); fill-rule: nonzero; opacity: 1;" vector-effect="non-scaling-stroke"  transform=" translate(-1191.83, -155.68)" d="M 1208 87.55 L 1175.34 87.55 C 1164.551912850499 87.54734740902983 1154.2047699953366 91.83103906257753 1146.5755025256915 99.45843109774131 C 1138.9462350560466 107.08582313290509 1134.6599996738883 117.4319125243877 1134.6599999999999 128.22000000000003 L 1134.6599999999999 183.13 C 1134.6333599779575 193.92715159614082 1138.9107209513234 204.2897543487507 1146.5454833012864 211.92451669871357 C 1154.1802456512492 219.55927904867644 1164.5428484038591 223.8366400220423 1175.34 223.81 L 1208 223.81 C 1230.5531148436512 223.89300959768872 1248.9062958355382 205.68307294525053 1249 183.12999999999997 L 1249 128.22 C 1248.9007920324682 105.67083866510065 1230.5492267492878 87.46698110249227 1208 87.55 Z M 1208 194.41 L 1175.34 194.41 C 1172.6307118157765 194.4106466430342 1170.0354548917342 193.31955689837838 1168.1405101169132 191.38321313145613 C 1166.2455653420923 189.4468693645339 1165.2108099111617 186.82864161835835 1165.27 184.12 L 1165.27 127.18 C 1165.2699520728854 124.5174066284069 1166.3317527740307 121.9647322693708 1168.2201134756126 120.08763415646631 C 1170.1084741771945 118.21053604356182 1172.6674545550902 117.16402443933653 1175.33 117.18 L 1208 117.18 C 1213.5677749225483 117.18319930373114 1218.123085953764 121.61443571541977 1218.28 127.18 L 1218.28 184.06 C 1218.2959649387697 186.7977264222799 1217.2202684611823 189.42894759165804 1215.2909504616298 191.37140297058497 C 1213.3616324620773 193.3138583495119 1210.7377717233505 194.4073859339129 1208 194.41 Z" stroke-linecap="round" />
</g>
		<g transform="matrix(1 0 0 1 -477.4 -40.04)"  >
<path style="stroke: none; stroke-width: 1; stroke-dasharray: none; stroke-linecap: butt; stroke-dashoffset: 0; stroke-linejoin: miter; stroke-miterlimit: 4; fill: rgb(255,255,255); fill-rule: nonzero; opacity: 1;" vector-effect="non-scaling-stroke"  transform=" translate(-147.1, -119.86)" d="M 90.94 239.72 L 146.59 239.72 C 150.12126005734748 239.70729051309246 153.50408991132423 238.2980776514996 156 235.8 L 198.61 193.19 C 199.863677215339 191.93713307059514 200.56805389696154 190.23739445470147 200.56805389696154 188.465 C 200.56805389696154 186.69260554529853 199.863677215339 184.99286692940487 198.61 183.74 L 179.8 164.9 C 178.54713307059515 163.646322784661 176.8473944547015 162.94194610303845 175.07500000000002 162.94194610303845 C 173.30260554529855 162.94194610303845 171.60286692940488 163.64632278466104 170.35000000000002 164.9 L 139.46000000000004 195.79000000000002 C 136.95331905558675 198.30131515845162 133.54824993007784 199.70869573781098 130 199.7 L 107.5 199.7 C 103.9560879573593 199.70161980074306 100.55673408349999 198.29511465293461 98.05 195.79 L 43.89 141.62 C 41.39593137500674 139.1075278862832 39.99744715572591 135.7101819037115 40 132.17 L 40 131.07 C 40.00276113003914 127.52695885720131 41.408600887378874 124.12921315212189 43.91 121.61999999999999 L 121.61 43.92999999999999 C 124.09626763399349 41.428511665256 127.47314021239674 40.015187998256565 131 40 L 219.7 40 C 223.2439120426407 39.998380199256935 226.64326591649998 41.404885347065395 229.14999999999998 43.91 L 282.78 97.55 C 284.69068811287264 99.46598970396046 287.5684989837073 100.0400666618501 290.0681029136278 99.00385924830724 C 292.5677068435483 97.96765183476438 294.1952964075545 95.52586724700646 294.19 92.82 L 294.19 57.81999999999999 C 294.1878692008012 54.274871181445874 292.7778505738227 50.875719134265665 290.27 48.36999999999999 L 245.73 3.91 C 243.2220239696598 1.4067461111563913 239.823476184587 0.0005744879146347692 236.28 0 L 114.45 0 C 110.90695885720133 0.002761130039142731 107.5092131521219 1.408600887378881 105 3.91 L 3.91 105 C 1.4061563970872855 107.51166743548563 0.00011610473854917203 110.91349382055444 0 114.46000000000001 L 0 148.78 C -0.000521698003900177 152.3236940115101 1.4058164794797472 155.72264433816497 3.9100000000000055 158.23 L 81.49 235.81 C 83.99735566183503 238.31418352052026 87.39630598848989 239.7205216980039 90.94 239.72 Z" stroke-linecap="round" />
</g>
		<g transform="matrix(1 0 0 1 -477.4 40.04)"  >
<path style="stroke: none; stroke-width: 1; stroke-dasharray: none; stroke-linecap: butt; stroke-dashoffset: 0; stroke-linejoin: miter; stroke-miterlimit: 4; fill: rgb(255,255,255); fill-rule: nonzero; opacity: 1;" vector-effect="non-scaling-stroke"  transform=" translate(-147.09, -199.95)" d="M 203.25 80.09 L 147.6 80.09 C 144.05695885720132 80.09276113003915 140.6592131521219 81.49860088737888 138.15 84 L 95.54 126.62 C 94.28632278466102 127.87286692940488 93.58194610303846 129.57260554529853 93.58194610303846 131.345 C 93.58194610303846 133.11739445470147 94.28632278466102 134.81713307059513 95.54 136.07 L 114.39000000000001 154.91 C 115.64286692940489 156.163677215339 117.34260554529855 156.86805389696156 119.11500000000001 156.86805389696156 C 120.88739445470148 156.86805389696156 122.58713307059514 156.163677215339 123.84000000000002 154.91 L 154.73 124 C 157.23548728299357 121.49301856486208 160.63565128191578 120.08617822245088 164.17999999999998 120.09 L 186.67999999999998 120.09 C 190.22391204264068 120.08838019925695 193.62326591649997 121.49488534706539 196.12999999999997 124 L 250.29999999999995 178.17000000000002 C 252.80139911262108 180.67921315212192 254.2072388699608 184.07695885720133 254.20999999999995 187.62 L 254.20999999999995 188.72 C 254.2072388699608 192.26304114279867 252.80139911262108 195.6607868478781 250.29999999999995 198.17 L 172.59999999999997 275.86 C 170.0957644000162 278.3688542659096 166.69478621202944 279.7760314844311 163.14999999999998 279.77000000000004 L 74.49 279.77000000000004 C 70.93511048971074 279.7875616303286 67.51980800310486 278.38761150673565 65 275.88 L 11.41 222.24 C 9.495466873647615 220.32005130153286 6.610312005490774 219.74783061225193 4.10794416117686 220.79176320987983 C 1.6055763168629476 221.8356958075077 -0.01753577051956512 224.28866590155351 0 227 L 0 262 C 0.0021307991988210664 265.54512881855413 1.4121494261772765 268.9442808657343 3.9199999999999964 271.45 L 48.46 315.9 C 50.969213152121895 318.4013991126211 54.36695885720131 319.8072388699608 57.91 319.81 L 179.74 319.81 C 183.28304114279868 319.8072388699608 186.6807868478781 318.4013991126211 189.19 315.9 L 290.28 214.8 C 292.7813991126211 212.2907868478781 294.1872388699608 208.8930411427987 294.19 205.35000000000002 L 294.19 171 C 294.1905216980039 167.4563059884899 292.78418352052023 164.05735566183503 290.28 161.55 L 212.7 84 C 210.19264433816494 81.49581647947974 206.7936940115101 80.0894783019961 203.25 80.09 Z" stroke-linecap="round" />
</g>
</g>
</g>
</svg>